<svg width="96" height="30" viewBox="0 0 96 30" fill="none" xmlns="http://www.w3.org/2000/svg">
<path d="M0 11.6429L18.4939 11.9526L9.48255 0.365265L0 11.6429Z" fill="#FF725E"/>
<path d="M8.58946 20.7305H5.45703V23.863H8.58946V20.7305Z" fill="#FF725E"/>
<path d="M11.2775 23.8988H8.58936V26.587H11.2775V23.8988Z" fill="#FF725E"/>
<path d="M7.86245 27.1794H5.45703V29.5893H7.86245V27.1794Z" fill="#FF725E"/>
<path d="M13.683 21.4799H11.2776V23.8899H13.683V21.4799Z" fill="#FF725E"/>
<path d="M5.45708 24.1591H3.73828V25.8779H5.45708V24.1591Z" fill="#FF725E"/>
<path d="M12.9964 26.8428H11.2776V28.5616H12.9964V26.8428Z" fill="#FF725E"/>
<path d="M13.7144 10.2921L4.14663 10.2427L4.07483 21.5248H13.7144V10.2921ZM10.3621 19.5233H8.64332V17.8045H10.3621V19.5233Z" fill="#FF725E"/>
<path d="M30.9374 9.95966C33.9258 9.95966 36.096 11.4894 36.7541 14.0509H33.3922C32.9297 13.2149 32.0758 12.7702 30.9374 12.7702C28.9807 12.7702 27.6822 14.1577 27.6822 16.3278C27.6822 18.6403 28.9985 19.9922 31.1864 19.9922C32.6984 19.9922 33.7479 19.1917 34.2104 17.7865H30.3504V15.5451H36.9676V18.3735C36.3272 20.5258 34.246 22.6782 30.9552 22.6782C27.2197 22.6782 24.587 20.0633 24.587 16.3278C24.587 12.5923 27.2019 9.95966 30.9374 9.95966ZM38.0477 17.6086C38.0477 14.4779 39.9866 12.5212 42.4235 12.5212C43.9 12.5212 44.9495 13.1971 45.4831 14.0687V12.6635H48.5249V22.5893H45.4831V21.184C44.9317 22.0556 43.8822 22.7316 42.4058 22.7316C39.9866 22.7316 38.0477 20.7393 38.0477 17.6086ZM45.4831 17.6264C45.4831 16.0432 44.4692 15.1716 43.313 15.1716C42.1745 15.1716 41.1428 16.0254 41.1428 17.6086C41.1428 19.1917 42.1745 20.0811 43.313 20.0811C44.4692 20.0811 45.4831 19.2095 45.4831 17.6264ZM50.1207 17.6086C50.1207 14.4779 52.0596 12.5212 54.4966 12.5212C55.8129 12.5212 56.9513 13.126 57.5561 14.0332V9.42602H60.5979V22.5893H57.5561V21.1662C57.0047 22.0734 55.9552 22.7316 54.4966 22.7316C52.0596 22.7316 50.1207 20.7393 50.1207 17.6086ZM57.5561 17.6264C57.5561 16.0432 56.5422 15.1716 55.386 15.1716C54.2475 15.1716 53.2158 16.0254 53.2158 17.6086C53.2158 19.1917 54.2475 20.0811 55.386 20.0811C56.5422 20.0811 57.5561 19.2095 57.5561 17.6264ZM62.1937 17.6086C62.1937 14.4779 64.1326 12.5212 66.5696 12.5212C68.0282 12.5212 69.0955 13.1793 69.6292 14.0687V12.6635H72.6709V22.5715C72.6709 25.2219 71.1412 27.481 67.708 27.481C64.7552 27.481 62.8341 25.9868 62.5673 23.621H65.5735C65.7691 24.3681 66.5162 24.8484 67.5657 24.8484C68.722 24.8484 69.6292 24.2436 69.6292 22.5715V21.1662C69.0777 22.0378 68.0282 22.7316 66.5696 22.7316C64.1326 22.7316 62.1937 20.7393 62.1937 17.6086ZM69.6292 17.6264C69.6292 16.0432 68.6152 15.1716 67.459 15.1716C66.3206 15.1716 65.2889 16.0254 65.2889 17.6086C65.2889 19.1917 66.3206 20.0811 67.459 20.0811C68.6152 20.0811 69.6292 19.2095 69.6292 17.6264ZM79.2474 14.9581C78.2513 14.9581 77.4864 15.5629 77.3085 16.6658H81.1152C81.1152 15.5807 80.2614 14.9581 79.2474 14.9581ZM83.9969 19.2985C83.5166 21.2374 81.7556 22.7316 79.283 22.7316C76.3657 22.7316 74.2667 20.7749 74.2667 17.6264C74.2667 14.4779 76.3302 12.5212 79.283 12.5212C82.1825 12.5212 84.2281 14.4423 84.2281 17.4663C84.2281 17.7509 84.2103 18.0533 84.1748 18.3557H77.2907C77.3975 19.6542 78.1979 20.259 79.1763 20.259C80.0301 20.259 80.5104 19.8321 80.7594 19.2985H83.9969ZM85.228 17.6264C85.228 14.4956 87.2914 12.5212 90.2087 12.5212C92.699 12.5212 94.4601 13.8908 94.9759 16.2567H91.7385C91.4894 15.5629 90.9914 15.1182 90.1553 15.1182C89.0702 15.1182 88.3231 15.9721 88.3231 17.6264C88.3231 19.2807 89.0702 20.1345 90.1553 20.1345C90.9914 20.1345 91.4717 19.7254 91.7385 18.9961H94.9759C94.4601 21.2907 92.699 22.7316 90.2087 22.7316C87.2914 22.7316 85.228 20.7749 85.228 17.6264Z" fill="#FF725E"/>
</svg>
